# 3ds Max Wavefront OBJ Exporter v0.97b - (c)2007 guruware
# File Created: 20.05.2016 22:14:21

mtllib background_escenario.mtl

#
# object Box001
#

v  -3159.8447 -101.7127 2017.1423
v  622.7711 -101.7127 2017.1427
v  622.7711 -101.7127 -278.8560
v  -3159.8447 -101.7127 -278.8563
v  -3159.8447 1142.4445 2017.1423
v  -3159.8447 1142.4442 -278.8563
v  622.7711 1142.4442 -278.8560
v  622.7711 1142.4445 2017.1427
# 8 vertices

vn 0.0000 1.0000 -0.0000
vn -0.0000 -1.0000 0.0000
vn 0.0000 0.0000 -1.0000
vn -1.0000 0.0000 -0.0000
vn -0.0000 0.0000 1.0000
# 5 vertex normals

vt 0.7844 0.4025 0.0000
vt 0.4157 0.4025 0.0000
vt 0.4157 0.1787 0.0000
vt 0.7844 0.1787 0.0000
vt 0.0278 0.4066 0.0000
vt 0.0278 0.1828 0.0000
vt 0.3966 0.1828 0.0000
vt 0.3966 0.4066 0.0000
vt 0.9980 0.0020 0.0000
vt 0.9980 0.1277 0.0000
vt 0.6159 0.1277 0.0000
vt 0.6159 0.0020 0.0000
vt 0.3841 0.1277 0.0000
vt 0.3841 0.0020 0.0000
vt 0.0020 0.1277 0.0000
vt 0.0020 0.0020 0.0000
# 16 texture coords

g Box001
usemtl Material__50
s 2
f 1/1/1 2/2/1 3/3/1 4/4/1 
s 4
f 5/5/2 6/6/2 7/7/2 8/8/2 
s 8
f 1/9/3 5/10/3 8/11/3 2/12/3 
s 16
f 2/12/4 8/11/4 7/13/4 3/14/4 
s 32
f 3/14/5 7/13/5 6/15/5 4/16/5 
# 5 polygons

