# 3ds Max Wavefront OBJ Exporter v0.97b - (c)2007 guruware
# File Created: 19.05.2016 12:55:07

mtllib coin_zero.mtl

#
# object coin001
#

v  7.3662 -0.0000 6.1002
v  7.3662 19.0546 6.1002
v  7.3662 30.9264 17.8586
v  7.3662 -30.9264 17.8586
v  7.3662 -19.0546 6.1002
v  7.3662 -25.2503 25.2559
v  7.3662 -0.0000 35.7172
v  7.3662 -9.2387 34.5002
v  7.3662 -17.8530 30.9320
v  7.3662 17.8530 30.9320
v  7.3662 9.2387 34.5002
v  7.3662 25.2503 25.2559
v  7.3662 34.4946 9.2443
v  7.3662 19.0546 -0.0004
v  7.3662 -34.4946 9.2443
v  7.3662 -19.0546 -0.0004
v  7.3662 35.7116 0.0000
v  7.3662 19.0546 -6.1128
v  7.3662 34.4946 -9.2443
v  7.3662 -35.7116 -0.0000
v  7.3662 -34.4946 -9.2443
v  7.3662 -19.0546 -6.1129
v  7.3662 30.9264 -17.8586
v  7.3662 -0.0000 -6.1128
v  7.3662 -30.9264 -17.8586
v  7.3662 25.2503 -25.2559
v  7.3662 -25.2503 -25.2559
v  7.3662 0.0000 -35.7172
v  7.3662 9.2387 -34.5002
v  7.3662 -9.2387 -34.5002
v  7.3662 -17.8530 -30.9320
v  7.3662 17.8530 -30.9320
v  3.4147 17.7518 4.7975
v  3.4147 -0.0000 4.7975
v  3.4147 17.7518 -4.8101
v  3.4147 -0.0000 -4.8101
v  3.4147 -17.7518 4.7975
v  3.4147 -17.7518 -4.8101
v  -3.4147 -17.7518 -4.8101
v  -3.4147 -17.7518 4.7975
v  -3.4147 0.0000 -4.8101
v  -3.4147 0.0000 4.7975
v  -3.4147 17.7518 -4.8101
v  -3.4147 17.7518 4.7975
v  -7.3662 25.2503 -25.2559
v  -7.3662 17.8530 -30.9320
v  -7.3662 0.0000 -6.1129
v  -7.3662 30.9264 -17.8586
v  -7.3662 9.2387 -34.5002
v  -7.3662 19.0546 -6.1128
v  -7.3662 34.4946 -9.2443
v  -7.3662 0.0000 -35.7172
v  -7.3662 -25.2503 -25.2559
v  -7.3662 -30.9264 -17.8586
v  -7.3662 -9.2387 -34.5002
v  -7.3662 -19.0546 -6.1129
v  -7.3662 -17.8530 -30.9320
v  -7.3662 19.0546 -0.0004
v  -7.3662 35.7116 0.0000
v  -7.3662 -34.4946 -9.2443
v  -7.3662 -19.0546 -0.0004
v  -7.3662 34.4946 9.2443
v  -7.3662 19.0546 6.1002
v  -7.3662 -35.7116 -0.0000
v  -7.3662 -34.4946 9.2443
v  -7.3662 -19.0546 6.1002
v  -7.3662 30.9264 17.8586
v  -7.3662 0.0000 6.1002
v  -7.3662 -30.9264 17.8586
v  -7.3662 25.2503 25.2559
v  -7.3662 -25.2503 25.2559
v  -7.3662 -9.2387 34.5002
v  -7.3662 -0.0000 35.7172
v  -7.3662 -17.8530 30.9320
v  -7.3662 9.2387 34.5002
v  -7.3662 17.8530 30.9320
v  -4.8671 -32.5186 18.7779
v  4.8671 -32.5186 18.7779
v  -4.8671 -26.5503 26.5560
v  4.8671 -36.2705 9.7202
v  -4.8671 -36.2705 9.7202
v  4.8671 -26.5503 26.5560
v  -4.8671 -18.7722 32.5244
v  4.8671 -37.5501 -0.0000
v  -4.8671 -37.5501 -0.0000
v  4.8671 -18.7722 32.5244
v  -4.8671 -9.7144 36.2762
v  4.8671 -36.2705 -9.7202
v  -4.8671 -36.2705 -9.7202
v  4.8671 -9.7144 36.2762
v  -4.8671 -0.0000 37.5559
v  4.8671 -32.5186 -18.7780
v  -4.8671 -32.5186 -18.7780
v  4.8671 -0.0000 37.5559
v  -4.8671 9.7144 36.2762
v  4.8671 -26.5503 -26.5560
v  -4.8671 -26.5503 -26.5560
v  4.8671 9.7144 36.2762
v  -4.8671 18.7722 32.5244
v  4.8671 -18.7722 -32.5244
v  -4.8671 -18.7722 -32.5244
v  4.8671 18.7722 32.5244
v  -4.8671 26.5503 26.5560
v  4.8671 -9.7144 -36.2762
v  -4.8671 -9.7144 -36.2762
v  4.8671 26.5503 26.5560
v  -4.8671 32.5186 18.7780
v  4.8671 0.0000 -37.5559
v  -4.8671 0.0000 -37.5559
v  4.8671 32.5186 18.7780
v  -4.8671 36.2705 9.7202
v  4.8671 9.7144 -36.2762
v  -4.8671 9.7144 -36.2762
v  4.8671 36.2705 9.7202
v  -4.8671 37.5501 0.0000
v  4.8671 18.7722 -32.5244
v  -4.8671 18.7722 -32.5244
v  4.8671 37.5501 0.0000
v  4.8671 26.5503 -26.5560
v  -4.8671 26.5503 -26.5560
v  4.8671 32.5186 -18.7780
v  -4.8671 32.5186 -18.7780
v  4.8671 36.2705 -9.7202
v  -4.8671 36.2705 -9.7202
# 124 vertices

vn 1.0000 -0.0000 0.0000
vn -1.0000 0.0000 -0.0000
vn -0.0000 -0.8660 0.5000
vn -0.0000 -0.7071 0.7071
vn -0.0000 -0.9659 0.2588
vn -0.0000 -0.5000 0.8660
vn -0.0000 -1.0000 -0.0000
vn -0.0000 -0.2589 0.9659
vn -0.0000 -0.9659 -0.2588
vn -0.0000 -0.0000 1.0000
vn -0.0000 -0.8660 -0.5000
vn -0.0000 0.2589 0.9659
vn -0.0000 -0.7071 -0.7071
vn 0.0000 0.5000 0.8660
vn -0.0000 -0.5000 -0.8660
vn 0.0000 0.7071 0.7071
vn 0.0000 -0.2589 -0.9659
vn 0.0000 0.8660 0.5000
vn 0.0000 0.0000 -1.0000
vn 0.0000 0.9659 0.2588
vn 0.0000 0.2589 -0.9659
vn 0.0000 0.9914 0.1305
vn 0.0000 0.5000 -0.8660
vn 0.0000 0.7071 -0.7071
vn 0.0000 0.8660 -0.5000
vn 0.0000 0.9659 -0.2588
vn 0.0000 0.9914 -0.1305
vn -0.3131 -0.9497 0.0000
vn -0.3131 -0.9497 -0.0000
vn -0.3131 0.9497 -0.0000
vn -0.3131 0.9497 0.0000
vn 0.3131 -0.9497 0.0000
vn 0.3131 -0.9497 -0.0000
vn 0.3131 0.9497 -0.0000
vn 0.3131 0.9497 0.0000
vn 0.3131 -0.0000 0.9497
vn 0.3131 0.0000 -0.9497
vn -0.3131 0.0000 -0.9497
vn -0.3131 -0.0000 0.9497
vn -0.5926 -0.6976 -0.4028
vn -0.5926 -0.5696 -0.5696
vn -0.5926 -0.7781 -0.2085
vn -0.5926 -0.4027 -0.6976
vn -0.5926 -0.8055 -0.0000
vn -0.5926 -0.4028 -0.6976
vn -0.5926 -0.2085 -0.7780
vn -0.5926 -0.7781 0.2085
vn -0.5926 0.0000 -0.8055
vn -0.5926 -0.6976 0.4028
vn -0.5926 0.2085 -0.7780
vn -0.5926 -0.5696 0.5696
vn -0.5926 0.4027 -0.6976
vn -0.5926 -0.4028 0.6976
vn -0.5926 -0.4027 0.6976
vn -0.5926 0.4028 -0.6976
vn -0.5926 0.5696 -0.5696
vn -0.5926 -0.2085 0.7780
vn -0.5926 0.6976 -0.4028
vn -0.5926 0.0000 0.8055
vn -0.5926 0.7781 -0.2085
vn -0.5926 0.2085 0.7780
vn -0.5893 0.8010 -0.1055
vn -0.5926 0.4028 0.6976
vn -0.5926 0.4027 0.6976
vn -0.5926 0.5696 0.5696
vn -0.5926 0.6976 0.4028
vn -0.5926 0.7781 0.2085
vn -0.5893 0.8010 0.1055
vn 0.5926 -0.6976 -0.4028
vn 0.5926 -0.5696 -0.5696
vn 0.5926 -0.7781 -0.2085
vn 0.5926 -0.4027 -0.6976
vn 0.5926 -0.8055 -0.0000
vn 0.5926 -0.2085 -0.7780
vn 0.5926 -0.4028 -0.6976
vn 0.5926 -0.7781 0.2085
vn 0.5926 -0.0000 -0.8055
vn 0.5926 -0.6976 0.4028
vn 0.5926 0.2085 -0.7780
vn 0.5926 -0.5696 0.5696
vn 0.5926 0.4028 -0.6976
vn 0.5926 0.4027 -0.6976
vn 0.5926 -0.4027 0.6976
vn 0.5926 -0.4028 0.6976
vn 0.5926 0.5696 -0.5696
vn 0.5926 -0.2085 0.7780
vn 0.5926 0.6976 -0.4028
vn 0.5926 -0.0000 0.8055
vn 0.5926 0.7781 -0.2085
vn 0.5926 0.2085 0.7780
vn 0.5893 0.8010 -0.1055
vn 0.5926 0.4028 0.6976
vn 0.5926 0.4027 0.6976
vn 0.5926 0.5696 0.5696
vn 0.5926 0.6976 0.4028
vn 0.5926 0.7781 0.2085
vn 0.5893 0.8010 0.1055
# 97 vertex normals

vt 0.4219 0.5000 0.0000
vt 0.4219 0.7734 0.0000
vt 0.2548 0.9247 0.0000
vt 0.2548 0.0753 0.0000
vt 0.4219 0.2266 0.0000
vt 0.1532 0.1533 0.0000
vt 0.0096 0.5000 0.0000
vt 0.0263 0.3731 0.0000
vt 0.0753 0.2549 0.0000
vt 0.0753 0.7451 0.0000
vt 0.0263 0.6269 0.0000
vt 0.1532 0.8467 0.0000
vt 0.3731 0.9736 0.0000
vt 0.5000 0.7734 0.0000
vt 0.3731 0.0264 0.0000
vt 0.5000 0.2266 0.0000
vt 0.5000 0.9904 0.0000
vt 0.5781 0.7734 0.0000
vt 0.6269 0.9736 0.0000
vt 0.5000 0.0096 0.0000
vt 0.6269 0.0264 0.0000
vt 0.5781 0.2266 0.0000
vt 0.7452 0.9247 0.0000
vt 0.5781 0.5000 0.0000
vt 0.7452 0.0753 0.0000
vt 0.8468 0.8467 0.0000
vt 0.8468 0.1533 0.0000
vt 0.9904 0.5000 0.0000
vt 0.9737 0.6269 0.0000
vt 0.9737 0.3731 0.0000
vt 0.9247 0.2549 0.0000
vt 0.9247 0.7451 0.0000
vt 0.4531 0.7422 0.0000
vt 0.4531 0.5000 0.0000
vt 0.5469 0.7422 0.0000
vt 0.5469 0.5000 0.0000
vt 0.4531 0.2578 0.0000
vt 0.5469 0.2578 0.0000
vt 0.0938 0.0599 0.0000
vt 0.0313 0.0599 0.0000
vt 0.0938 0.0547 0.0000
vt 0.0313 0.0651 0.0000
vt 0.0938 0.0651 0.0000
vt 0.0313 0.0547 0.0000
vt 0.0938 0.0495 0.0000
vt 0.0313 0.0703 0.0000
vt 0.0938 0.0703 0.0000
vt 0.0313 0.0495 0.0000
vt 0.0938 0.0443 0.0000
vt 0.0313 0.0755 0.0000
vt 0.0938 0.0755 0.0000
vt 0.0313 0.0443 0.0000
vt 0.0938 0.0391 0.0000
vt 0.0313 0.0807 0.0000
vt 0.0938 0.0807 0.0000
vt 0.0313 0.0391 0.0000
vt 0.0938 0.0339 0.0000
vt 0.0313 0.0859 0.0000
vt 0.0938 0.0859 0.0000
vt 0.0313 0.0339 0.0000
vt 0.0938 0.0286 0.0000
vt 0.0313 0.0911 0.0000
vt 0.0938 0.0911 0.0000
vt 0.0313 0.0286 0.0000
vt 0.0938 0.0234 0.0000
vt 0.0313 0.0964 0.0000
vt 0.0938 0.0964 0.0000
vt 0.0313 0.0234 0.0000
vt 0.0938 0.0182 0.0000
vt 0.0313 0.1016 0.0000
vt 0.0938 0.1016 0.0000
vt 0.0313 0.0182 0.0000
vt 0.0938 0.0130 0.0000
vt 0.0313 0.1068 0.0000
vt 0.0938 0.1068 0.0000
vt 0.0313 0.0130 0.0000
vt 0.0938 0.0078 0.0000
vt 0.0313 0.1120 0.0000
vt 0.0938 0.1120 0.0000
vt 0.0313 0.0078 0.0000
vt 0.0313 0.1172 0.0000
vt 0.0938 0.1172 0.0000
vt 0.0313 0.1224 0.0000
vt 0.0938 0.1224 0.0000
vt 0.0313 0.1276 0.0000
vt 0.0938 0.1276 0.0000
vt 0.0313 0.1328 0.0000
vt 0.0938 0.1328 0.0000
vt 0.1172 0.0807 0.0000
vt 0.1172 0.0755 0.0000
vt 0.1172 0.0859 0.0000
vt 0.1172 0.0703 0.0000
vt 0.1172 0.0911 0.0000
vt 0.1172 0.0651 0.0000
vt 0.1172 0.0964 0.0000
vt 0.1172 0.0599 0.0000
vt 0.1172 0.1016 0.0000
vt 0.1172 0.0547 0.0000
vt 0.1172 0.1068 0.0000
vt 0.1172 0.0495 0.0000
vt 0.1172 0.1120 0.0000
vt 0.1172 0.0443 0.0000
vt 0.1172 0.1172 0.0000
vt 0.1172 0.0391 0.0000
vt 0.1172 0.1224 0.0000
vt 0.1172 0.0339 0.0000
vt 0.1172 0.1276 0.0000
vt 0.1172 0.0286 0.0000
vt 0.1172 0.1328 0.0000
vt 0.1172 0.0234 0.0000
vt 0.1172 0.0182 0.0000
vt 0.1172 0.0130 0.0000
vt 0.1172 0.0078 0.0000
vt 0.0078 0.0807 0.0000
vt 0.0078 0.0755 0.0000
vt 0.0078 0.0859 0.0000
vt 0.0078 0.0703 0.0000
vt 0.0078 0.0911 0.0000
vt 0.0078 0.0651 0.0000
vt 0.0078 0.0964 0.0000
vt 0.0078 0.0599 0.0000
vt 0.0078 0.1068 0.0000
vt 0.0078 0.1016 0.0000
vt 0.0078 0.0547 0.0000
vt 0.0078 0.1120 0.0000
vt 0.0078 0.0495 0.0000
vt 0.0078 0.1172 0.0000
vt 0.0078 0.0443 0.0000
vt 0.0078 0.1224 0.0000
vt 0.0078 0.0391 0.0000
vt 0.0078 0.1276 0.0000
vt 0.0078 0.0339 0.0000
vt 0.0078 0.1328 0.0000
vt 0.0078 0.0286 0.0000
vt 0.0078 0.0234 0.0000
vt 0.0078 0.0182 0.0000
vt 0.0078 0.0130 0.0000
vt 0.0078 0.0078 0.0000
# 138 texture coords

g coin001
usemtl Material__2
s 1
f 1/1/1 2/2/1 3/3/1 
f 1/1/1 4/4/1 5/5/1 
f 1/1/1 6/6/1 4/4/1 
f 1/1/1 7/7/1 8/8/1 
f 1/1/1 8/8/1 9/9/1 
f 1/1/1 9/9/1 6/6/1 
f 1/1/1 10/10/1 11/11/1 
f 1/1/1 12/12/1 10/10/1 
f 1/1/1 11/11/1 7/7/1 
f 1/1/1 3/3/1 12/12/1 
f 3/3/1 2/2/1 13/13/1 
f 2/2/1 14/14/1 13/13/1 
f 4/4/1 15/15/1 5/5/1 
f 5/5/1 15/15/1 16/16/1 
f 13/13/1 14/14/1 17/17/1 
f 14/14/1 18/18/1 19/19/1 
f 14/14/1 19/19/1 17/17/1 
f 15/15/1 20/20/1 16/16/1 
f 16/16/1 21/21/1 22/22/1 
f 16/16/1 20/20/1 21/21/1 
f 18/18/1 23/23/1 19/19/1 
f 18/18/1 24/24/1 23/23/1 
f 21/21/1 25/25/1 22/22/1 
f 22/22/1 25/25/1 24/24/1 
f 23/23/1 24/24/1 26/26/1 
f 25/25/1 27/27/1 24/24/1 
f 24/24/1 28/28/1 29/29/1 
f 24/24/1 30/30/1 28/28/1 
f 24/24/1 27/27/1 31/31/1 
f 24/24/1 31/31/1 30/30/1 
f 24/24/1 32/32/1 26/26/1 
f 24/24/1 29/29/1 32/32/1 
f 33/33/1 34/34/1 35/35/1 
f 34/34/1 36/36/1 35/35/1 
f 34/34/1 37/37/1 36/36/1 
f 36/36/1 37/37/1 38/38/1 
f 39/37/2 40/38/2 41/34/2 
f 40/38/2 42/36/2 41/34/2 
f 41/34/2 42/36/2 43/33/2 
f 42/36/2 44/35/2 43/33/2 
f 45/12/2 46/10/2 47/1/2 
f 45/12/2 47/1/2 48/3/2 
f 46/10/2 49/11/2 47/1/2 
f 48/3/2 50/2/2 51/13/2 
f 48/3/2 47/1/2 50/2/2 
f 49/11/2 52/7/2 47/1/2 
f 47/1/2 53/6/2 54/4/2 
f 47/1/2 52/7/2 55/8/2 
f 47/1/2 54/4/2 56/5/2 
f 47/1/2 57/9/2 53/6/2 
f 47/1/2 55/8/2 57/9/2 
f 50/2/2 58/14/2 51/13/2 
f 51/13/2 58/14/2 59/17/2 
f 54/4/2 60/15/2 56/5/2 
f 56/5/2 60/15/2 61/16/2 
f 58/14/2 62/19/2 59/17/2 
f 58/14/2 63/18/2 62/19/2 
f 60/15/2 64/20/2 61/16/2 
f 61/16/2 65/21/2 66/22/2 
f 61/16/2 64/20/2 65/21/2 
f 62/19/2 63/18/2 67/23/2 
f 63/18/2 68/24/2 67/23/2 
f 65/21/2 69/25/2 66/22/2 
f 66/22/2 69/25/2 68/24/2 
f 67/23/2 68/24/2 70/26/2 
f 69/25/2 71/27/2 68/24/2 
f 68/24/2 72/30/2 73/28/2 
f 68/24/2 74/31/2 72/30/2 
f 68/24/2 71/27/2 74/31/2 
f 68/24/2 75/29/2 76/32/2 
f 68/24/2 76/32/2 70/26/2 
f 68/24/2 73/28/2 75/29/2 
f 77/39/3 78/40/3 79/41/4 
f 77/39/3 80/42/5 78/40/3 
f 77/39/3 81/43/5 80/42/5 
f 78/40/3 82/44/4 79/41/4 
f 79/41/4 82/44/4 83/45/6 
f 80/42/5 81/43/5 84/46/7 
f 81/43/5 85/47/7 84/46/7 
f 82/44/4 86/48/6 83/45/6 
f 83/45/6 86/48/6 87/49/8 
f 84/46/7 85/47/7 88/50/9 
f 85/47/7 89/51/9 88/50/9 
f 86/48/6 90/52/8 87/49/8 
f 87/49/8 90/52/8 91/53/10 
f 88/50/9 89/51/9 92/54/11 
f 89/51/9 93/55/11 92/54/11 
f 90/52/8 94/56/10 91/53/10 
f 91/53/10 94/56/10 95/57/12 
f 92/54/11 93/55/11 96/58/13 
f 93/55/11 97/59/13 96/58/13 
f 94/56/10 98/60/12 95/57/12 
f 95/57/12 98/60/12 99/61/14 
f 96/58/13 97/59/13 100/62/15 
f 97/59/13 101/63/15 100/62/15 
f 98/60/12 102/64/14 99/61/14 
f 99/61/14 102/64/14 103/65/16 
f 100/62/15 101/63/15 104/66/17 
f 101/63/15 105/67/17 104/66/17 
f 102/64/14 106/68/16 103/65/16 
f 103/65/16 106/68/16 107/69/18 
f 104/66/17 105/67/17 108/70/19 
f 105/67/17 109/71/19 108/70/19 
f 106/68/16 110/72/18 107/69/18 
f 107/69/18 110/72/18 111/73/20 
f 108/70/19 109/71/19 112/74/21 
f 109/71/19 113/75/21 112/74/21 
f 110/72/18 114/76/20 111/73/20 
f 111/73/20 114/76/20 115/77/22 
f 112/74/21 113/75/21 116/78/23 
f 113/75/21 117/79/23 116/78/23 
f 114/76/20 118/80/22 115/77/22 
f 116/78/23 117/79/23 119/81/24 
f 117/79/23 120/82/24 119/81/24 
f 119/81/24 120/82/24 121/83/25 
f 120/82/24 122/84/25 121/83/25 
f 121/83/25 122/84/25 123/85/26 
f 122/84/25 124/86/26 123/85/26 
f 123/85/26 124/86/26 118/87/27 
f 124/86/26 115/88/27 118/87/27 
f 50/2/28 43/33/28 58/14/29 
f 43/33/28 44/35/29 58/14/29 
f 58/14/29 44/35/29 63/18/29 
f 66/22/30 40/38/30 61/16/31 
f 40/38/30 39/37/31 61/16/31 
f 61/16/31 39/37/31 56/5/31 
f 18/18/32 14/14/33 35/35/32 
f 14/14/33 33/33/33 35/35/32 
f 14/14/33 2/2/33 33/33/33 
f 5/5/34 16/16/35 37/37/34 
f 16/16/35 22/22/35 38/38/35 
f 16/16/35 38/38/35 37/37/34 
f 36/36/36 38/38/36 24/24/36 
f 36/36/36 24/24/36 35/35/36 
f 38/38/36 22/22/36 24/24/36 
f 24/24/36 18/18/36 35/35/36 
f 34/34/37 33/33/37 1/1/37 
f 34/34/37 1/1/37 37/37/37 
f 33/33/37 2/2/37 1/1/37 
f 1/1/37 5/5/37 37/37/37 
f 68/24/38 44/35/38 42/36/38 
f 44/35/38 68/24/38 63/18/38 
f 42/36/38 40/38/38 68/24/38 
f 68/24/38 40/38/38 66/22/38 
f 41/34/39 43/33/39 47/1/39 
f 41/34/39 47/1/39 39/37/39 
f 43/33/39 50/2/39 47/1/39 
f 47/1/39 56/5/39 39/37/39 
f 93/55/40 54/89/40 97/59/41 
f 93/55/40 60/90/42 54/89/40 
f 93/55/40 89/51/42 60/90/42 
f 54/89/40 53/91/41 97/59/41 
f 97/59/41 53/91/41 101/63/43 
f 60/90/42 89/51/42 64/92/44 
f 89/51/42 85/47/44 64/92/44 
f 53/91/41 57/93/45 101/63/43 
f 101/63/43 57/93/45 105/67/46 
f 64/92/44 85/47/44 65/94/47 
f 85/47/44 81/43/47 65/94/47 
f 57/93/45 55/95/46 105/67/46 
f 105/67/46 55/95/46 109/71/48 
f 65/94/47 81/43/47 77/39/49 
f 65/94/47 77/39/49 69/96/49 
f 55/95/46 52/97/48 109/71/48 
f 109/71/48 52/97/48 113/75/50 
f 77/39/49 71/98/51 69/96/49 
f 77/39/49 79/41/51 71/98/51 
f 52/97/48 49/99/50 113/75/50 
f 113/75/50 49/99/50 117/79/52 
f 71/98/51 79/41/51 74/100/53 
f 79/41/51 83/45/54 74/100/53 
f 49/99/50 46/101/55 117/79/52 
f 117/79/52 46/101/55 120/82/56 
f 74/100/53 83/45/54 72/102/57 
f 83/45/54 87/49/57 72/102/57 
f 46/101/55 45/103/56 120/82/56 
f 120/82/56 45/103/56 122/84/58 
f 72/102/57 87/49/57 73/104/59 
f 87/49/57 91/53/59 73/104/59 
f 45/103/56 48/105/58 122/84/58 
f 122/84/58 48/105/58 124/86/60 
f 73/104/59 91/53/59 75/106/61 
f 91/53/59 95/57/61 75/106/61 
f 48/105/58 51/107/60 124/86/60 
f 124/86/60 51/107/60 115/88/62 
f 75/106/61 95/57/61 76/108/63 
f 95/57/61 99/61/64 76/108/63 
f 51/107/60 59/109/62 115/88/62 
f 76/108/63 99/61/64 70/110/65 
f 99/61/64 103/65/65 70/110/65 
f 70/110/65 103/65/65 67/111/66 
f 103/65/65 107/69/66 67/111/66 
f 67/111/66 107/69/66 62/112/67 
f 107/69/66 111/73/67 62/112/67 
f 62/112/67 111/73/67 59/113/68 
f 111/73/67 115/77/68 59/113/68 
f 92/54/69 96/58/70 25/114/69 
f 92/54/69 25/114/69 21/115/71 
f 92/54/69 21/115/71 88/50/71 
f 96/58/70 100/62/72 27/116/70 
f 96/58/70 27/116/70 25/114/69 
f 21/115/71 20/117/73 88/50/71 
f 88/50/71 20/117/73 84/46/73 
f 100/62/72 104/66/74 31/118/75 
f 100/62/72 31/118/75 27/116/70 
f 20/117/73 80/42/76 84/46/73 
f 20/117/73 15/119/76 80/42/76 
f 104/66/74 108/70/77 30/120/74 
f 104/66/74 30/120/74 31/118/75 
f 80/42/76 15/119/76 78/40/78 
f 15/119/76 4/121/78 78/40/78 
f 108/70/77 112/74/79 29/122/79 
f 108/70/77 29/122/79 28/123/77 
f 108/70/77 28/123/77 30/120/74 
f 78/40/78 4/121/78 82/44/80 
f 4/121/78 6/124/80 82/44/80 
f 112/74/79 32/125/81 29/122/79 
f 112/74/79 116/78/82 32/125/81 
f 82/44/80 6/124/80 86/48/83 
f 6/124/80 9/126/84 86/48/83 
f 32/125/81 116/78/82 26/127/85 
f 116/78/82 119/81/85 26/127/85 
f 86/48/83 9/126/84 90/52/86 
f 9/126/84 8/128/86 90/52/86 
f 26/127/85 119/81/85 23/129/87 
f 119/81/85 121/83/87 23/129/87 
f 90/52/86 8/128/86 94/56/88 
f 8/128/86 7/130/88 94/56/88 
f 23/129/87 121/83/87 19/131/89 
f 121/83/87 123/85/89 19/131/89 
f 94/56/88 11/132/90 98/60/90 
f 94/56/88 7/130/88 11/132/90 
f 19/131/89 123/85/89 17/133/91 
f 123/85/89 118/87/91 17/133/91 
f 11/132/90 10/134/92 98/60/90 
f 98/60/90 10/134/92 102/64/93 
f 10/134/92 12/135/94 102/64/93 
f 102/64/93 12/135/94 106/68/94 
f 12/135/94 3/136/95 106/68/94 
f 106/68/94 3/136/95 110/72/95 
f 3/136/95 13/137/96 110/72/95 
f 110/72/95 13/137/96 114/76/96 
f 13/137/96 17/138/97 114/76/96 
f 114/76/96 17/138/97 118/80/97 
# 0 polygons - 244 triangles

