# 3ds Max Wavefront OBJ Exporter v0.97b - (c)2007 guruware
# File Created: 14.05.2016 15:35:29

mtllib pipe_scenario.mtl

#
# object polygon0
#

v  -175.7093 380.0940 1357.2529
v  -194.4250 379.3932 1357.2529
v  -167.7945 380.0940 1317.3198
v  -185.0856 379.3932 1404.3740
v  -167.7945 380.0940 1397.1860
v  -158.4893 379.3932 1444.3213
v  -145.2552 380.0940 1431.0397
v  -118.6850 379.3932 1471.0133
v  -111.5228 380.0940 1453.6600
v  -71.7327 379.3932 1480.3862
v  -71.7327 380.0940 1461.6033
v  -24.7804 379.3932 1471.0133
v  -31.9426 380.0940 1453.6600
v  15.0239 379.3932 1444.3213
v  1.7898 380.0940 1431.0397
v  41.6202 379.3932 1404.3739
v  24.3291 380.0940 1397.1860
v  50.9596 379.3932 1357.2528
v  32.2438 380.0940 1357.2528
v  41.6202 379.3932 1310.1317
v  24.3290 380.0940 1317.3197
v  15.0238 379.3932 1270.1843
v  1.7898 380.0940 1283.4661
v  -24.7805 379.3932 1243.4924
v  -31.9427 380.0940 1260.8457
v  -71.7328 379.3932 1234.1194
v  -71.7328 380.0940 1252.9025
v  -118.6851 379.3932 1243.4924
v  -111.5229 380.0940 1260.8457
v  -158.4893 379.3932 1270.1844
v  -145.2553 380.0940 1283.4661
v  -185.0856 379.3932 1310.1318
v  -196.5045 467.1178 1357.2529
v  -185.3066 470.1673 1310.0400
v  -187.0069 467.1178 1309.3333
v  -194.6642 470.1673 1357.2529
v  -187.0069 467.1178 1405.1727
v  -185.3066 470.1673 1404.4658
v  -159.9597 467.1178 1445.7971
v  -158.6584 470.1673 1444.4911
v  -119.4808 467.1178 1472.9414
v  -118.7765 470.1673 1471.2351
v  -71.7327 467.1178 1482.4733
v  -71.7327 470.1673 1480.6263
v  -23.9846 467.1178 1472.9414
v  -24.6888 470.1673 1471.2350
v  16.4943 467.1178 1445.7970
v  15.1930 470.1673 1444.4910
v  43.5415 467.1178 1405.1726
v  41.8411 470.1673 1404.4658
v  53.0391 467.1178 1357.2528
v  51.1987 470.1673 1357.2528
v  43.5414 467.1178 1309.3331
v  41.8411 470.1673 1310.0399
v  16.4942 467.1178 1268.7086
v  15.1929 470.1673 1270.0146
v  -23.9847 467.1178 1241.5642
v  -24.6890 470.1673 1243.2706
v  -71.7328 467.1178 1232.0325
v  -71.7328 470.1673 1233.8794
v  -119.4809 467.1178 1241.5643
v  -118.7766 470.1673 1243.2708
v  -159.9597 467.1178 1268.7087
v  -158.6584 470.1673 1270.0148
v  -153.0010 470.1673 1323.4695
v  -159.6969 470.1673 1357.2529
v  -153.0009 470.1673 1391.0364
v  -133.9327 470.1673 1419.6765
v  -105.3951 470.1673 1438.8132
v  -71.7327 470.1673 1445.5332
v  -38.0702 470.1673 1438.8132
v  -9.5327 470.1673 1419.6765
v  9.5356 470.1673 1391.0363
v  16.2314 470.1673 1357.2528
v  9.5355 470.1673 1323.4694
v  -9.5327 470.1673 1294.8292
v  -38.0703 470.1673 1275.6924
v  -71.7328 470.1673 1268.9725
v  -105.3952 470.1673 1275.6924
v  -133.9328 470.1673 1294.8292
v  -196.5045 382.2276 1357.2529
v  -187.0069 382.2276 1309.3333
v  -187.0069 382.2276 1405.1727
v  -159.9597 382.2276 1445.7971
v  -119.4808 382.2276 1472.9414
v  -71.7327 382.2276 1482.4733
v  -23.9846 382.2276 1472.9414
v  16.4943 382.2276 1445.7970
v  43.5415 382.2276 1405.1726
v  53.0391 382.2276 1357.2528
v  43.5414 382.2276 1309.3331
v  16.4942 382.2276 1268.7086
v  -23.9847 382.2276 1241.5642
v  -71.7328 382.2276 1232.0325
v  -119.4809 382.2276 1241.5643
v  -159.9597 382.2276 1268.7087
v  -31.0762 116.5932 1260.3240
v  -70.8663 116.5932 1252.3807
v  2.6563 116.5932 1282.9448
v  25.1956 116.5932 1316.7988
v  33.1104 116.5932 1356.7323
v  25.1956 116.5932 1396.6658
v  2.6564 116.5932 1430.5198
v  -31.0761 116.5932 1453.1404
v  -70.8662 116.5932 1461.0835
v  -110.6563 116.5932 1453.1404
v  -144.3887 116.5932 1430.5198
v  -166.9280 116.5932 1396.6659
v  -174.8428 116.5932 1356.7324
v  -166.9280 116.5932 1316.7990
v  -144.3888 116.5932 1282.9448
v  -110.6564 116.5932 1260.3240
# 112 vertices

vn 0.0374 -0.9993 -0.0000
vn 0.0346 -0.9993 0.0143
vn 0.0346 -0.9993 -0.0143
vn 0.0265 -0.9993 -0.0264
vn 0.0143 -0.9993 -0.0344
vn -0.0000 -0.9993 -0.0373
vn -0.0143 -0.9993 -0.0344
vn -0.0265 -0.9993 -0.0264
vn -0.0346 -0.9993 -0.0143
vn -0.0374 -0.9993 0.0000
vn -0.0346 -0.9993 0.0143
vn -0.0265 -0.9993 0.0264
vn -0.0143 -0.9993 0.0344
vn 0.0000 -0.9993 0.0373
vn 0.0143 -0.9993 0.0344
vn 0.0265 -0.9993 0.0264
vn -0.8562 0.5167 0.0000
vn -0.7913 0.5169 -0.3266
vn -0.7913 0.5169 0.3266
vn -0.6061 0.5174 0.6041
vn -0.3283 0.5179 0.7900
vn 0.0000 0.5181 0.8553
vn 0.3283 0.5179 0.7900
vn 0.6061 0.5174 0.6041
vn 0.7913 0.5169 0.3266
vn 0.8562 0.5167 -0.0000
vn 0.7913 0.5169 -0.3267
vn 0.6061 0.5174 -0.6041
vn 0.3283 0.5179 -0.7900
vn -0.0000 0.5181 -0.8553
vn -0.3283 0.5179 -0.7900
vn -0.6061 0.5174 -0.6041
vn 0.0000 1.0000 -0.0000
vn -1.0000 0.0000 0.0000
vn -0.9243 -0.0023 -0.3816
vn -0.9243 0.0000 0.3816
vn -0.7083 0.0000 0.7059
vn -0.3838 0.0000 0.9234
vn 0.0000 0.0000 1.0000
vn 0.3838 0.0000 0.9234
vn 0.7083 0.0000 0.7059
vn 0.9243 0.0000 0.3816
vn 1.0000 0.0000 -0.0000
vn 0.9243 0.0000 -0.3816
vn 0.7083 0.0000 -0.7059
vn 0.3838 0.0000 -0.9234
vn -0.0000 0.0020 -1.0000
vn -0.3838 0.0006 -0.9234
vn -0.7083 -0.0009 -0.7059
vn -0.7451 -0.5917 -0.3076
vn -0.8063 -0.5915 0.0000
vn -0.5707 -0.5922 -0.5688
vn -0.3091 -0.5927 -0.7437
vn -0.0000 -0.5929 -0.8053
vn 0.3091 -0.5927 -0.7437
vn 0.5707 -0.5922 -0.5688
vn 0.7451 -0.5917 -0.3076
vn 0.8063 -0.5915 -0.0000
vn 0.7451 -0.5917 0.3076
vn 0.5707 -0.5922 0.5688
vn 0.3091 -0.5927 0.7437
vn 0.0000 -0.5929 0.8053
vn -0.3091 -0.5927 0.7437
vn -0.5707 -0.5922 0.5688
vn -0.7451 -0.5917 0.3076
# 65 vertex normals

vt 1.5000 0.5325 0.0000
vt 1.5000 0.5857 0.0000
vt 1.2500 0.5325 0.0000
vt 1.2500 0.5857 0.0000
vt 1.0000 0.5857 0.0000
vt 1.0000 0.5325 0.0000
vt 0.7500 0.5857 0.0000
vt 0.7500 0.5325 0.0000
vt 0.5000 0.5857 0.0000
vt 0.5000 0.5325 0.0000
vt 1.5000 0.7877 0.0000
vt 1.2500 0.7913 0.0000
vt 1.2500 0.7877 0.0000
vt 1.5000 0.7913 0.0000
vt 1.0000 0.7877 0.0000
vt 1.0000 0.7913 0.0000
vt 0.7500 0.7877 0.0000
vt 0.7500 0.7913 0.0000
vt 0.5000 0.7877 0.0000
vt 0.5000 0.7913 0.0000
vt 1.2504 0.8603 0.0000
vt 1.5000 0.8603 0.0000
vt 1.0000 0.8603 0.0000
vt 0.7504 0.8603 0.0000
vt 0.5000 0.8603 0.0000
vt 1.5000 0.5916 0.0000
vt 1.2500 0.5916 0.0000
vt 1.0000 0.5916 0.0000
vt 0.7500 0.5916 0.0000
vt 0.5000 0.5916 0.0000
vt 0.7500 0.0000 0.0000
vt 0.5000 0.0000 0.0000
vt 1.0000 0.0000 0.0000
vt 1.2500 0.0000 0.0000
vt 1.5000 0.0000 0.0000
# 35 texture coords

g polygon0
usemtl MAT_Green_Pipe
s 1
f 1/1/1 2/2/1 3/3/2 
f 1/1/1 4/4/3 2/2/1 
f 5/3/3 4/4/3 1/1/1 
f 5/3/3 6/5/4 4/4/3 
f 7/6/4 6/5/4 5/3/3 
f 7/6/4 8/7/5 6/5/4 
f 9/8/5 8/7/5 7/6/4 
f 9/8/5 10/9/6 8/7/5 
f 11/10/6 10/9/6 9/8/5 
f 11/10/6 12/7/7 10/9/6 
f 13/8/7 12/7/7 11/10/6 
f 13/8/7 14/5/8 12/7/7 
f 15/6/8 14/5/8 13/8/7 
f 15/6/8 16/4/9 14/5/8 
f 17/3/9 16/4/9 15/6/8 
f 17/3/9 18/2/10 16/4/9 
f 19/1/10 18/2/10 17/3/9 
f 19/1/10 20/4/11 18/2/10 
f 21/3/11 20/4/11 19/1/10 
f 21/3/11 22/5/12 20/4/11 
f 23/6/12 22/5/12 21/3/11 
f 23/6/12 24/7/13 22/5/12 
f 25/8/13 24/7/13 23/6/12 
f 25/8/13 26/9/14 24/7/13 
f 27/10/14 26/9/14 25/8/13 
f 27/10/14 28/7/15 26/9/14 
f 29/8/15 28/7/15 27/10/14 
f 29/8/15 30/5/16 28/7/15 
f 31/6/16 30/5/16 29/8/15 
f 31/6/16 32/4/2 30/5/16 
f 3/3/2 32/4/2 31/6/16 
f 3/3/2 2/2/1 32/4/2 
f 33/11/17 34/12/18 35/13/18 
f 33/11/17 36/14/17 34/12/18 
f 37/13/19 36/14/17 33/11/17 
f 37/13/19 38/12/19 36/14/17 
f 39/15/20 38/12/19 37/13/19 
f 39/15/20 40/16/20 38/12/19 
f 41/17/21 40/16/20 39/15/20 
f 41/17/21 42/18/21 40/16/20 
f 43/19/22 42/18/21 41/17/21 
f 43/19/22 44/20/22 42/18/21 
f 45/17/23 44/20/22 43/19/22 
f 45/17/23 46/18/23 44/20/22 
f 47/15/24 46/18/23 45/17/23 
f 47/15/24 48/16/24 46/18/23 
f 49/13/25 48/16/24 47/15/24 
f 49/13/25 50/12/25 48/16/24 
f 51/11/26 50/12/25 49/13/25 
f 51/11/26 52/14/26 50/12/25 
f 53/13/27 52/14/26 51/11/26 
f 53/13/27 54/12/27 52/14/26 
f 55/15/28 54/12/27 53/13/27 
f 55/15/28 56/16/28 54/12/27 
f 57/17/29 56/16/28 55/15/28 
f 57/17/29 58/18/29 56/16/28 
f 59/19/30 58/18/29 57/17/29 
f 59/19/30 60/20/30 58/18/29 
f 61/17/31 60/20/30 59/19/30 
f 61/17/31 62/18/31 60/20/30 
f 63/15/32 62/18/31 61/17/31 
f 63/15/32 64/16/32 62/18/31 
f 35/13/18 64/16/32 63/15/32 
f 35/13/18 34/12/18 64/16/32 
f 36/14/33 65/21/33 34/12/33 
f 36/14/33 66/22/33 65/21/33 
f 38/12/33 66/22/33 36/14/33 
f 38/12/33 67/21/33 66/22/33 
f 40/16/33 67/21/33 38/12/33 
f 40/16/33 68/23/33 67/21/33 
f 42/18/33 68/23/33 40/16/33 
f 42/18/33 69/24/33 68/23/33 
f 44/20/33 69/24/33 42/18/33 
f 44/20/33 70/25/33 69/24/33 
f 46/18/33 70/25/33 44/20/33 
f 46/18/33 71/24/33 70/25/33 
f 48/16/33 71/24/33 46/18/33 
f 48/16/33 72/23/33 71/24/33 
f 50/12/33 72/23/33 48/16/33 
f 50/12/33 73/21/33 72/23/33 
f 52/14/33 73/21/33 50/12/33 
f 52/14/33 74/22/33 73/21/33 
f 54/12/33 74/22/33 52/14/33 
f 54/12/33 75/21/33 74/22/33 
f 56/16/33 75/21/33 54/12/33 
f 56/16/33 76/23/33 75/21/33 
f 58/18/33 76/23/33 56/16/33 
f 58/18/33 77/24/33 76/23/33 
f 60/20/33 77/24/33 58/18/33 
f 60/20/33 78/25/33 77/24/33 
f 62/18/33 78/25/33 60/20/33 
f 62/18/33 79/24/33 78/25/33 
f 64/16/33 79/24/33 62/18/33 
f 64/16/33 80/23/33 79/24/33 
f 34/12/33 80/23/33 64/16/33 
f 34/12/33 65/21/33 80/23/33 
f 81/26/34 35/13/35 82/27/35 
f 81/26/34 33/11/34 35/13/35 
f 83/27/36 33/11/34 81/26/34 
f 83/27/36 37/13/36 33/11/34 
f 84/28/37 37/13/36 83/27/36 
f 84/28/37 39/15/37 37/13/36 
f 85/29/38 39/15/37 84/28/37 
f 85/29/38 41/17/38 39/15/37 
f 86/30/39 41/17/38 85/29/38 
f 86/30/39 43/19/39 41/17/38 
f 87/29/40 43/19/39 86/30/39 
f 87/29/40 45/17/40 43/19/39 
f 88/28/41 45/17/40 87/29/40 
f 88/28/41 47/15/41 45/17/40 
f 89/27/42 47/15/41 88/28/41 
f 89/27/42 49/13/42 47/15/41 
f 90/26/43 49/13/42 89/27/42 
f 90/26/43 51/11/43 49/13/42 
f 91/27/44 51/11/43 90/26/43 
f 91/27/44 53/13/44 51/11/43 
f 92/28/45 53/13/44 91/27/44 
f 92/28/45 55/15/45 53/13/44 
f 93/29/46 55/15/45 92/28/45 
f 93/29/46 57/17/46 55/15/45 
f 94/30/47 57/17/46 93/29/46 
f 94/30/47 59/19/47 57/17/46 
f 95/29/48 59/19/47 94/30/47 
f 95/29/48 61/17/48 59/19/47 
f 96/28/49 61/17/48 95/29/48 
f 96/28/49 63/15/49 61/17/48 
f 82/27/35 63/15/49 96/28/49 
f 82/27/35 35/13/35 63/15/49 
f 82/27/50 32/4/50 2/2/51 
f 82/27/50 30/5/52 32/4/50 
f 96/28/52 30/5/52 82/27/50 
f 96/28/52 28/7/53 30/5/52 
f 95/29/53 28/7/53 96/28/52 
f 95/29/53 26/9/54 28/7/53 
f 94/30/54 26/9/54 95/29/53 
f 94/30/54 24/7/55 26/9/54 
f 93/29/55 24/7/55 94/30/54 
f 93/29/55 22/5/56 24/7/55 
f 92/28/56 22/5/56 93/29/55 
f 92/28/56 20/4/57 22/5/56 
f 91/27/57 20/4/57 92/28/56 
f 91/27/57 18/2/58 20/4/57 
f 90/26/58 18/2/58 91/27/57 
f 90/26/58 16/4/59 18/2/58 
f 89/27/59 16/4/59 90/26/58 
f 89/27/59 14/5/60 16/4/59 
f 88/28/60 14/5/60 89/27/59 
f 88/28/60 12/7/61 14/5/60 
f 87/29/61 12/7/61 88/28/60 
f 87/29/61 10/9/62 12/7/61 
f 86/30/62 10/9/62 87/29/61 
f 86/30/62 8/7/63 10/9/62 
f 85/29/63 8/7/63 86/30/62 
f 85/29/63 6/5/64 8/7/63 
f 84/28/64 6/5/64 85/29/63 
f 84/28/64 4/4/65 6/5/64 
f 83/27/65 4/4/65 84/28/64 
f 83/27/65 2/2/51 4/4/65 
f 81/26/51 2/2/51 83/27/65 
f 81/26/51 82/27/50 2/2/51 
f 25/8/46 97/31/46 98/32/47 
f 25/8/46 99/33/45 97/31/46 
f 23/6/45 99/33/45 25/8/46 
f 23/6/45 100/34/44 99/33/45 
f 21/3/44 100/34/44 23/6/45 
f 21/3/44 101/35/43 100/34/44 
f 19/1/43 101/35/43 21/3/44 
f 19/1/43 102/34/42 101/35/43 
f 17/3/42 102/34/42 19/1/43 
f 17/3/42 103/33/41 102/34/42 
f 15/6/41 103/33/41 17/3/42 
f 15/6/41 104/31/40 103/33/41 
f 13/8/40 104/31/40 15/6/41 
f 13/8/40 105/32/39 104/31/40 
f 11/10/39 105/32/39 13/8/40 
f 11/10/39 106/31/38 105/32/39 
f 9/8/38 106/31/38 11/10/39 
f 9/8/38 107/33/37 106/31/38 
f 7/6/37 107/33/37 9/8/38 
f 7/6/37 108/34/36 107/33/37 
f 5/3/36 108/34/36 7/6/37 
f 5/3/36 109/35/34 108/34/36 
f 1/1/34 109/35/34 5/3/36 
f 1/1/34 110/34/35 109/35/34 
f 3/3/35 110/34/35 1/1/34 
f 3/3/35 111/33/49 110/34/35 
f 31/6/49 111/33/49 3/3/35 
f 31/6/49 112/31/48 111/33/49 
f 29/8/48 112/31/48 31/6/49 
f 29/8/48 27/10/47 112/31/48 
f 98/32/47 27/10/47 25/8/46 
f 98/32/47 112/31/48 27/10/47 
# 0 polygons - 192 triangles

#
# object polygon1
#

v  -105.3951 231.3680 1438.8132
v  -153.0010 231.3680 1323.4695
v  -153.0009 231.3680 1391.0364
v  -38.0703 231.3680 1275.6924
v  9.5356 231.3680 1391.0363
v  9.5355 231.3680 1323.4694
v  -71.7328 470.1673 1268.9725
v  -105.3952 231.3680 1275.6924
v  -38.0703 470.1673 1275.6924
v  -9.5327 470.1673 1294.8292
v  9.5355 470.1673 1323.4694
v  16.2314 470.1673 1357.2528
v  9.5356 470.1673 1391.0363
v  -9.5327 470.1673 1419.6765
v  -38.0702 231.3680 1438.8132
v  -38.0702 470.1673 1438.8132
v  -71.7327 470.1673 1445.5332
v  -105.3951 470.1673 1438.8132
v  -133.9327 470.1673 1419.6765
v  -153.0009 470.1673 1391.0364
v  -159.6969 470.1673 1357.2529
v  -153.0010 470.1673 1323.4695
v  -133.9328 470.1673 1294.8292
v  -105.3952 470.1673 1275.6924
# 24 vertices

vn 0.0000 1.0000 -0.0000
vn -0.3836 0.0148 0.9234
vn 0.0000 0.0095 1.0000
vn 0.3836 0.0148 0.9234
vn -0.3838 0.0000 0.9234
vn -0.7083 0.0095 0.7059
vn -0.9242 0.0147 0.3817
vn -0.9243 0.0000 0.3816
vn -1.0000 0.0095 0.0000
vn -0.9242 0.0147 -0.3817
vn -0.9243 0.0000 -0.3816
vn -0.7083 0.0095 -0.7059
vn -0.3836 0.0148 -0.9234
vn -0.3838 0.0000 -0.9234
vn -0.0000 0.0095 -1.0000
vn 0.3836 0.0148 -0.9234
vn 0.3838 0.0000 -0.9234
vn 0.7083 0.0095 -0.7059
vn 0.9242 0.0147 -0.3817
vn 0.9243 0.0000 -0.3816
vn 1.0000 0.0095 -0.0000
vn 0.9242 0.0147 0.3817
vn 0.9243 0.0000 0.3816
vn 0.7083 0.0095 0.7059
vn 0.3838 0.0000 0.9234
# 25 vertex normals

vt 0.6803 -0.0084 0.0000
vt 0.9502 -0.0149 0.0000
vt 0.9502 -0.0111 0.0000
vt 0.2985 -0.0176 0.0000
vt 0.0286 -0.0111 0.0000
vt 0.0286 -0.0149 0.0000
vt 1.3754 0.9959 0.0000
vt 1.5000 0.8603 0.0000
vt 1.5000 0.9959 0.0000
vt 1.4353 0.8603 0.0000
vt 1.3754 0.8603 0.0000
vt 1.2504 0.9959 0.0000
vt 1.3103 0.8603 0.0000
vt 1.2504 0.8603 0.0000
vt 1.1250 0.9959 0.0000
vt 1.1849 0.8603 0.0000
vt 1.1250 0.8603 0.0000
vt 1.0000 0.9959 0.0000
vt 1.0599 0.8603 0.0000
vt 1.0000 0.8603 0.0000
vt 0.8754 0.9959 0.0000
vt 0.9353 0.8603 0.0000
vt 0.8754 0.8603 0.0000
vt 0.7504 0.9959 0.0000
vt 0.8103 0.8603 0.0000
vt 0.7504 0.8603 0.0000
vt 0.6250 0.9959 0.0000
vt 0.6849 0.8603 0.0000
vt 0.6250 0.8603 0.0000
vt 0.5000 0.9959 0.0000
vt 0.5599 0.8603 0.0000
vt 0.5000 0.8603 0.0000
vt 0.6803 -0.0176 0.0000
vt 0.2985 -0.0084 0.0000
# 34 texture coords

g polygon1
usemtl MAT_Green_Pipe
s 1
f 113/36/66 114/37/66 115/38/66 
f 113/36/66 116/39/66 114/37/66 
f 117/40/66 116/39/66 113/36/66 
f 117/40/66 118/41/66 116/39/66 
f 116/42/67 119/43/68 120/44/69 
f 116/42/67 121/45/70 119/43/68 
f 122/46/71 121/45/70 116/42/67 
f 118/47/72 122/46/71 116/42/67 
f 118/47/72 123/48/73 122/46/71 
f 124/49/74 123/48/73 118/47/72 
f 117/50/75 124/49/74 118/47/72 
f 117/50/75 125/51/76 124/49/74 
f 126/52/77 125/51/76 117/50/75 
f 127/53/78 126/52/77 117/50/75 
f 127/53/78 128/54/79 126/52/77 
f 129/55/80 128/54/79 127/53/78 
f 113/56/81 129/55/80 127/53/78 
f 113/56/81 130/57/82 129/55/80 
f 131/58/83 130/57/82 113/56/81 
f 115/59/84 131/58/83 113/56/81 
f 115/59/84 132/60/85 131/58/83 
f 133/61/86 132/60/85 115/59/84 
f 114/62/87 133/61/86 115/59/84 
f 114/62/87 134/63/88 133/61/86 
f 135/64/89 134/63/88 114/62/87 
f 120/65/69 135/64/89 114/62/87 
f 120/65/69 136/66/90 135/64/89 
f 119/67/68 136/66/90 120/65/69 
f 116/39/66 120/68/66 114/37/66 
f 113/36/66 127/69/66 117/40/66 
# 0 polygons - 30 triangles

